<svg xmlns="http://www.w3.org/2000/svg" viewBox="0 0 512 804.2"><defs><style>.cls-1{fill:#010101;}</style></defs><g id="Layer_2" data-name="Layer 2"><g id="Layer_1-2" data-name="Layer 1"><path class="cls-1" d="M256,292.2c141.4,0,256,114.6,256,256,0,112.9-73.1,208.7-174.5,242.8A95.9,95.9,0,0,0,352,740.2V693.3a165.3,165.3,0,0,0,55.4-69.6c5-11.8-7-22.5-19.3-18.7-39.7,12.1-84.4,19-131.8,19s-92.2-6.9-131.8-19c-12.3-3.8-24.3,6.9-19.3,18.7,11.7,27.8,29.9,51.6,54.8,69.2v47.3A95.9,95.9,0,0,0,174.5,791C73.07,756.9,0,661.1,0,548.2c0-141.4,114.6-256,256-256ZM118.8,441l36,43.2-36,43.2c-2.7,2.2-2.8,4.9-2.8,7.7a11.86,11.86,0,0,0,17.5,10.4l89.9-47.9a15.2,15.2,0,0,0,0-26.8l-89.9-47.9A11.86,11.86,0,0,0,116,433.3c0,2.8.1,5.5,2.8,7.7Zm169.8,29.8a15.2,15.2,0,0,0,0,26.8l89.9,47.9A11.86,11.86,0,0,0,396,535.1a12.15,12.15,0,0,0-2.8-7.7l-36-43.2,36-43.2a12.15,12.15,0,0,0,2.8-7.7,11.86,11.86,0,0,0-17.5-10.4ZM256,804.2a64.06,64.06,0,0,1-64-64V694.8a26.59,26.59,0,0,1,26.6-26.6h2a24.27,24.27,0,0,1,23.6,18.9c2.8,12.6,19.9,12.6,23.6,0a24.27,24.27,0,0,1,23.6-18.9h2A26.59,26.59,0,0,1,320,694.8v45.4a64.06,64.06,0,0,1-64,64Z"/><path class="cls-1" d="M321.52,345.67c7.55-14.52,12.41-28.91,5.25-43.94C307.93,261.79,235,224.56,198.32,194.36c-28.14-22-57.95-53.08-53.63-92,4-34.24,29-60.72,53.17-82.64C205.67,12.82,213.72,6.28,221.92,0,209,15.77,196.72,32.42,187,50.21c-12,22.14-22.54,51.77-4.82,72.84,11.22,13.45,26.67,21.44,42.67,29.14,27.87,12.86,55.68,21.93,85.11,34.51,40.32,17.13,81.44,39.94,105.29,79.51C436.16,300,439,342.33,430.2,379.82L321.52,345.67Z"/><path class="cls-1" d="M82.88,360.23c-12-61.6,5.91-115.81,59.64-150.48,35.36-23,77.37-33.6,115.35-47.18,18.3-6.67,36.56-13.74,51.53-25.51l2.15-1.84,1.09-.92,1-1a46.92,46.92,0,0,0,14.85-28.92c3.82-34.34-18.63-73.91-36.31-103,20.92,20.88,41.34,43.71,54.38,71.1C370,122.61,349,161.83,308.2,193.17c-31.19,24.27-67,41.56-97.22,64.93-12.81,10.26-25.62,21.54-30.18,36.29-1.92,6.9-1.07,12.7,1,20.13a100.67,100.67,0,0,0,6.17,15.72l-105,30Z"/></g></g></svg>